<svg width="210" height="53" viewBox="0 0 210 53" version="1.1" xmlns="http://www.w3.org/2000/svg" xmlns:xlink="http://www.w3.org/1999/xlink">
    <use xlink:href="#logo" fill="#003150"/>
    <defs>
        <g id="logo">
            <path d="M 20.0244 21.8314C 19.1821 24.278 15.472 23.897 9.60606 23.9271C 9.60606 23.9271 9.60606 6.70031 9.60606 6.18892C 9.53592 5.67962 9.64588 5.16182 9.91692 4.72496C 10.4183 4.003 12.0226 4.04312 13.9278 4.04312L 13.9278 0.824358L 0.0100217 0.824358L 0.0100217 4.04312C 0.541464 4.04312 3.24881 3.80246 3.63987 4.82524C 3.80008 5.26097 3.86505 5.72597 3.83039 6.18892C 3.83039 6.76048 3.83039 21.7111 3.83039 21.7111C 3.88782 22.2167 3.84002 22.7288 3.69001 23.2152C 3.41927 23.6864 3.08838 23.9772 0 23.9772C 0 25.2808 0 27.1258 0 27.1258L 23.594 27.1258L 23.594 15.8953L 20.8265 15.8953C 20.7674 17.8966 20.4985 19.8862 20.0244 21.8314Z"/>
            <path d="M 116.536 5.29654L 116.536 22.3428C 116.536 24.1678 114.601 23.8268 112.816 23.897L 112.816 27.0857L 126.203 27.0857L 126.203 23.897C 123.626 23.897 122.482 24.1076 122.482 22.3428L 122.482 5.25642C 122.482 3.8125 123.826 4.05315 126.203 4.06318L 126.203 0.814372L 112.826 0.814372L 112.826 4.06318C 114.822 4.06318 116.536 3.81251 116.536 5.29654Z"/>
            <path d="M 199.291 11.1424C 192.613 9.73858 192.382 8.29467 192.182 7.51254C 192.087 7.10303 192.079 6.67819 192.158 6.26541C 192.238 5.85264 192.403 5.46111 192.643 5.11605C 193.255 4.22363 194.648 3.4415 196.864 3.4415C 203.282 3.4415 204.746 7.87354 205.508 10.9419L 208.275 10.9419L 208.275 0.834413L 205.959 0.834413L 204.585 2.76966C 202.371 1.08184 199.659 0.175622 196.874 0.192687C 193.154 0.192687 187.389 1.83714 187.389 8.36486C 187.389 15.2235 194.739 16.1159 197.887 16.7476C 202.139 17.5999 203.974 18.4422 204.716 19.6655C 205.043 20.3407 205.127 21.1079 204.956 21.8382C 204.784 22.5685 204.367 23.2175 203.773 23.6764C 202.65 24.5588 199.762 25.1905 195.852 24.0474C 192.372 23.0447 190.988 19.3948 190.357 16.5471L 187.73 16.5471L 187.73 27.1458L 189.815 27.1458L 191.289 25.0602C 191.7 25.722 195.24 28.0683 199.973 28.0683C 204.706 28.0683 210 25.9626 210 19.7357C 209.97 12.5562 201.587 11.6237 199.291 11.1424Z"/>
            <path d="M 146.087 4.06318L 148.533 4.06318C 150.318 4.06318 150.268 4.85534 150.268 5.73774C 150.268 10.1397 150.268 17.3793 150.268 17.3793L 138.777 0.814372L 128.138 0.814372L 128.138 4.11334L 130.424 4.11334C 131.918 4.11334 132.068 4.91549 132.089 6.21903L 132.089 21.7011C 132.089 24.3182 131.377 23.9371 128.138 23.9371L 128.138 27.1258L 141.063 27.1258L 141.063 23.9371C 137.433 23.9371 136.501 24.3282 136.501 21.9317L 136.501 7.77326C 140.912 14.2709 149.656 27.1157 149.656 27.1157L 154.61 27.1157L 154.61 5.60738C 154.61 4.99572 154.61 4.06318 155.723 4.06318L 158.55 4.06318L 158.55 0.814372L 146.097 0.814372L 146.087 4.06318Z"/>
            <path d="M 160.165 4.11334C 163.544 4.11334 164.517 3.75234 164.507 5.66754L 164.507 22.1423C 164.507 24.1978 163.694 23.8168 160.165 23.887L 160.165 27.1157L 185.403 27.1157L 185.403 15.9053L 182.395 15.9053L 182.395 19.094C 182.395 22.8742 179.718 23.897 177.271 23.8369L 170.202 23.8369L 170.202 15.043C 170.202 15.043 173.06 14.7723 174.072 15.7048C 175.316 16.868 175.155 20.5078 175.155 20.5078L 178.023 20.5078L 178.023 7.16159L 175.185 7.16159C 175.185 7.16159 175.115 10.5508 174.052 11.3831C 172.99 12.2153 170.202 11.9847 170.202 11.9847L 170.202 4.06318L 177.221 4.06318C 177.722 4.06318 180.129 3.93283 181.232 5.0659C 182.335 6.19898 182.475 8.61554 182.475 9.79875C 182.475 10.982 182.475 11.6438 182.475 11.6438L 185.323 11.6438L 185.323 0.814372L 160.175 0.814372L 160.165 4.11334Z"/>
            <path d="M 113.849 34.6763L 111.703 31.0464L 96.9632 31.0464L 94.6068 34.6061L 92.6014 31.0464L 53.1743 31.0464L 58.0475 35.1475L 66.33 35.1475L 69.4084 38.0454L 77.3299 38.0454L 80.9597 40.9433L 88.8512 40.9433L 91.739 43.8612L 97.8656 43.8612L 97.8656 52.2941L 110.771 52.2941L 110.771 43.8812L 116.787 43.8812L 119.554 40.9634L 127.747 40.9634L 130.454 38.0655L 139.017 38.0655L 141.644 35.1676L 150.308 35.1676L 154.78 31.0665L 116.717 31.0665L 113.849 34.6763ZM 102.378 39.0682L 106.098 39.0682L 104.323 41.7455L 102.378 39.0682ZM 106.008 47.1902L 102.528 47.1902L 104.233 44.4027L 106.008 47.1902ZM 101.606 37.9752L 100.062 35.5787L 108.695 35.5787L 107.071 37.9752L 101.606 37.9752ZM 103.3 43.2395L 99.2895 49.316L 99.2895 37.0628L 103.3 43.2395ZM 99.9814 50.9805L 101.526 48.584L 106.94 48.584L 108.565 50.9805L 99.9814 50.9805ZM 109.267 49.5266L 105.165 43.2596L 109.267 37.143L 109.267 49.5266ZM 151.381 32.4803L 149.686 33.9242L 127.426 33.9242L 126.213 35.2378L 139.719 35.2378L 138.155 36.8522L 120.728 36.8522L 119.504 38.0655L 128.529 38.0655L 126.955 39.6498L 113.819 39.6498L 112.566 40.9533L 117.579 40.9533L 116.225 42.3471L 110.7 42.3471L 110.7 34.1448L 97.8456 34.1448L 97.8456 42.3471L 92.3507 42.3471L 91.0471 40.9533L 95.9103 40.9533L 94.5165 39.6398L 81.4811 39.6398L 79.6161 38.0655L 88.8211 38.0655L 87.4975 36.782L 70.351 36.782L 68.5862 35.1676L 82.4237 35.1676L 80.9798 33.854L 58.6091 33.854L 56.8042 32.38L 91.6989 32.38L 94.5566 37.2533L 97.7353 32.4101L 110.771 32.4101L 113.779 37.4237L 117.328 32.4803L 151.381 32.4803Z"/>
            <path d="M 71.7347 4.05313L 74.1813 4.05313C 75.9762 4.05313 75.916 4.8453 75.916 5.72769C 75.916 10.1296 75.916 17.3693 75.916 17.3693L 64.465 0.814363L 53.786 0.814363L 53.786 4.11333L 56.724 4.11333C 58.0275 4.23365 57.7267 4.91548 57.7267 6.21902L 57.7267 21.701C 57.7267 24.1677 57.2554 23.9371 53.7759 23.9371L 53.7759 27.1258L 66.701 27.1258L 66.701 23.9271C 63.1815 23.9271 62.1387 24.2379 62.1387 21.9216L 62.1387 7.77325C 66.5506 14.2709 75.2944 27.1157 75.2944 27.1157L 80.2478 27.1157L 80.2478 5.59733C 80.2478 4.95559 80.1275 4.05313 81.3608 4.05313L 84.1885 4.05313L 84.1885 0.804326L 71.7447 0.804326L 71.7347 4.05313Z"/>
            <path d="M 52.703 6.77053C 51.6987 5.11911 50.3616 3.69479 48.7769 2.58822C 47.1921 1.48166 45.3944 0.717074 43.498 0.343085C 42.2786 0.110287 41.0395 -0.00388413 39.798 0.00216285C 35.8765 -0.0635708 32.078 1.37118 29.1792 4.01305C 27.3585 5.89258 26.0861 8.2339 25.4994 10.784C 24.9127 13.3341 25.034 15.9961 25.8502 18.4823C 26.66 20.8851 28.1192 23.0169 30.0659 24.6416C 32.0127 26.2662 34.3711 27.3204 36.8801 27.6873C 37.8762 27.8334 38.8815 27.9071 39.8883 27.9079C 44.7615 27.9079 49.2838 26.103 52.2418 22.042C 55.1998 17.9809 55.26 11.1825 52.703 6.77053ZM 48.0203 14.0001C 48.0203 18.011 47.2382 22.5333 43.1872 24.0875C 42.091 24.4611 40.935 24.6277 39.778 24.5788C 38.5966 24.6067 37.4212 24.4023 36.3186 23.9772C 32.7288 22.4431 31.6559 18.0211 31.5857 13.95C 31.5857 10.3603 32.5884 6.12878 35.2256 4.43418C 36.5923 3.54747 38.2002 3.1061 39.8281 3.17077C 41.4848 3.10114 43.123 3.54216 44.5208 4.43418C 46.797 6.21902 48.1607 9.58817 48.0203 14.0001Z"/>
            <path d="M 90.1346 26.4239C 92.0864 27.505 94.2915 28.045 96.522 27.9881C 99.5914 28.0173 102.589 27.0613 105.075 25.2607C 105.617 25.8824 106.078 26.5743 106.549 27.196L 109.638 27.196L 109.638 18.011C 109.638 15.6145 110.56 16.1259 113.117 16.0758L 113.117 13.198L 99.5702 13.198L 99.5702 16.0056C 103.07 16.1159 103.822 15.5343 103.862 17.9609C 103.862 22.9745 100.603 23.9772 99.851 24.258C 98.6376 24.7937 97.2849 24.9279 95.9899 24.6411C 94.6949 24.3544 93.5253 23.6616 92.6515 22.6637C 89.2823 18.6528 89.3826 9.28736 92.7016 5.34666C 94.4864 3.34122 97.1537 2.97021 99.9012 3.87266C 103 4.87538 104.774 8.12421 105.546 10.992L 108.715 10.992L 108.715 0.814372L 105.687 0.814372L 104.604 2.90002C 102.755 1.46006 100.56 0.530837 98.2388 0.205297C 95.9178 -0.120243 93.552 0.169301 91.378 1.04498C 86.5048 2.90001 83.9478 8.0039 83.7172 12.8871C 83.4866 18.3821 85.1812 23.6363 90.1346 26.4239Z"/>
        </g>
    </defs>
</svg>
